%TF.GenerationSoftware,KiCad,Pcbnew,7.0.1-0*%
%TF.CreationDate,2023-12-21T15:42:21+00:00*%
%TF.ProjectId,orb,6f72622e-6b69-4636-9164-5f7063625858,rev?*%
%TF.SameCoordinates,Original*%
%TF.FileFunction,Copper,L1,Top*%
%TF.FilePolarity,Positive*%
%FSLAX46Y46*%
G04 Gerber Fmt 4.6, Leading zero omitted, Abs format (unit mm)*
G04 Created by KiCad (PCBNEW 7.0.1-0) date 2023-12-21 15:42:21*
%MOMM*%
%LPD*%
G01*
G04 APERTURE LIST*
%TA.AperFunction,ComponentPad*%
%ADD10R,2.200000X2.200000*%
%TD*%
%TA.AperFunction,ComponentPad*%
%ADD11O,2.200000X2.200000*%
%TD*%
%TA.AperFunction,ComponentPad*%
%ADD12R,1.600000X1.600000*%
%TD*%
%TA.AperFunction,ComponentPad*%
%ADD13O,1.600000X1.600000*%
%TD*%
%TA.AperFunction,ComponentPad*%
%ADD14R,0.850000X0.850000*%
%TD*%
%TA.AperFunction,ComponentPad*%
%ADD15O,0.850000X0.850000*%
%TD*%
%TA.AperFunction,ComponentPad*%
%ADD16R,1.000000X1.000000*%
%TD*%
%TA.AperFunction,ComponentPad*%
%ADD17O,1.000000X1.000000*%
%TD*%
%TA.AperFunction,ViaPad*%
%ADD18C,0.800000*%
%TD*%
%TA.AperFunction,Conductor*%
%ADD19C,0.250000*%
%TD*%
G04 APERTURE END LIST*
D10*
%TO.P,D1,1,K*%
%TO.N,Net-(D1-K)*%
X193710000Y-75640000D03*
D11*
%TO.P,D1,2,A*%
%TO.N,Net-(D1-A)*%
X183550000Y-75640000D03*
%TD*%
D12*
%TO.P,E35,1,A2*%
%TO.N,Net-(E12-A2)*%
X146660522Y-54306393D03*
D13*
%TO.P,E35,2,A1*%
%TO.N,Net-(E12-A1)*%
X146660522Y-56846393D03*
%TO.P,E35,3,A0*%
%TO.N,Net-(E12-A0)*%
X146660522Y-59386393D03*
%TO.P,E35,4,D0*%
%TO.N,Net-(E12-D0)*%
X146660522Y-61926393D03*
%TO.P,E35,5,D1*%
%TO.N,Net-(E12-D1)*%
X146660522Y-64466393D03*
%TO.P,E35,6,D2*%
%TO.N,Net-(E12-D2)*%
X146660522Y-67006393D03*
%TO.P,E35,7,D3*%
%TO.N,Net-(E12-D3)*%
X146660522Y-69546393D03*
%TO.P,E35,8,D4*%
%TO.N,Net-(E12-D4)*%
X146660522Y-72086393D03*
%TO.P,E35,9,D5*%
%TO.N,Net-(E12-D5)*%
X146660522Y-74626393D03*
%TO.P,E35,10,D6*%
%TO.N,Net-(E12-D6)*%
X146660522Y-77166393D03*
%TO.P,E35,11,D7*%
%TO.N,Net-(E12-D7)*%
X146660522Y-79706393D03*
%TO.P,E35,12,V_{CC}*%
%TO.N,unconnected-(E35-V_{CC}-Pad12)*%
X146660522Y-82246393D03*
%TO.P,E35,13,PROGRAM*%
%TO.N,unconnected-(E35-PROGRAM-Pad13)*%
X156820522Y-82246393D03*
%TO.P,E35,14,~{CS}*%
%TO.N,unconnected-(E35-~{CS}-Pad14)*%
X156820522Y-79706393D03*
%TO.P,E35,15,V_{BB}*%
%TO.N,unconnected-(E35-V_{BB}-Pad15)*%
X156820522Y-77166393D03*
%TO.P,E35,16,V_{GG}*%
%TO.N,unconnected-(E35-V_{GG}-Pad16)*%
X156820522Y-74626393D03*
%TO.P,E35,17,A7*%
%TO.N,Net-(E12-A7)*%
X156820522Y-72086393D03*
%TO.P,E35,18,A6*%
%TO.N,Net-(E12-A6)*%
X156820522Y-69546393D03*
%TO.P,E35,19,A5*%
%TO.N,Net-(E12-A5)*%
X156820522Y-67006393D03*
%TO.P,E35,20,A4*%
%TO.N,Net-(E12-A4)*%
X156820522Y-64466393D03*
%TO.P,E35,21,A3*%
%TO.N,Net-(E12-A3)*%
X156820522Y-61926393D03*
%TO.P,E35,22,V_{CC}*%
%TO.N,unconnected-(E35-V_{CC}-Pad22)*%
X156820522Y-59386393D03*
%TO.P,E35,23,V_{CC}*%
%TO.N,unconnected-(E35-V_{CC}-Pad23)*%
X156820522Y-56846393D03*
%TO.P,E35,24,V_{DO}*%
%TO.N,Net-(D1-A)*%
X156820522Y-54306393D03*
%TD*%
D12*
%TO.P,E6,1,A2*%
%TO.N,Net-(E12-A2)*%
X94900522Y-54056393D03*
D13*
%TO.P,E6,2,A1*%
%TO.N,Net-(E12-A1)*%
X94900522Y-56596393D03*
%TO.P,E6,3,A0*%
%TO.N,Net-(E12-A0)*%
X94900522Y-59136393D03*
%TO.P,E6,4,D0*%
%TO.N,Net-(E12-D0)*%
X94900522Y-61676393D03*
%TO.P,E6,5,D1*%
%TO.N,Net-(E12-D1)*%
X94900522Y-64216393D03*
%TO.P,E6,6,D2*%
%TO.N,Net-(E12-D2)*%
X94900522Y-66756393D03*
%TO.P,E6,7,D3*%
%TO.N,Net-(E12-D3)*%
X94900522Y-69296393D03*
%TO.P,E6,8,D4*%
%TO.N,Net-(E12-D4)*%
X94900522Y-71836393D03*
%TO.P,E6,9,D5*%
%TO.N,Net-(E12-D5)*%
X94900522Y-74376393D03*
%TO.P,E6,10,D6*%
%TO.N,Net-(E12-D6)*%
X94900522Y-76916393D03*
%TO.P,E6,11,D7*%
%TO.N,Net-(E12-D7)*%
X94900522Y-79456393D03*
%TO.P,E6,12,V_{CC}*%
%TO.N,unconnected-(E6-V_{CC}-Pad12)*%
X94900522Y-81996393D03*
%TO.P,E6,13,PROGRAM*%
%TO.N,unconnected-(E6-PROGRAM-Pad13)*%
X105060522Y-81996393D03*
%TO.P,E6,14,~{CS}*%
%TO.N,Net-(E6-~{CS})*%
X105060522Y-79456393D03*
%TO.P,E6,15,V_{BB}*%
%TO.N,unconnected-(E6-V_{BB}-Pad15)*%
X105060522Y-76916393D03*
%TO.P,E6,16,V_{GG}*%
%TO.N,unconnected-(E6-V_{GG}-Pad16)*%
X105060522Y-74376393D03*
%TO.P,E6,17,A7*%
%TO.N,Net-(E12-A7)*%
X105060522Y-71836393D03*
%TO.P,E6,18,A6*%
%TO.N,Net-(E12-A6)*%
X105060522Y-69296393D03*
%TO.P,E6,19,A5*%
%TO.N,Net-(E12-A5)*%
X105060522Y-66756393D03*
%TO.P,E6,20,A4*%
%TO.N,Net-(E12-A4)*%
X105060522Y-64216393D03*
%TO.P,E6,21,A3*%
%TO.N,Net-(E12-A3)*%
X105060522Y-61676393D03*
%TO.P,E6,22,V_{CC}*%
%TO.N,unconnected-(E6-V_{CC}-Pad22)*%
X105060522Y-59136393D03*
%TO.P,E6,23,V_{CC}*%
%TO.N,unconnected-(E6-V_{CC}-Pad23)*%
X105060522Y-56596393D03*
%TO.P,E6,24,V_{DO}*%
%TO.N,Net-(D1-A)*%
X105060522Y-54056393D03*
%TD*%
D12*
%TO.P,E20,1,A2*%
%TO.N,Net-(E12-A2)*%
X129730522Y-54296393D03*
D13*
%TO.P,E20,2,A1*%
%TO.N,Net-(E12-A1)*%
X129730522Y-56836393D03*
%TO.P,E20,3,A0*%
%TO.N,Net-(E12-A0)*%
X129730522Y-59376393D03*
%TO.P,E20,4,D0*%
%TO.N,Net-(E12-D0)*%
X129730522Y-61916393D03*
%TO.P,E20,5,D1*%
%TO.N,Net-(E12-D1)*%
X129730522Y-64456393D03*
%TO.P,E20,6,D2*%
%TO.N,Net-(E12-D2)*%
X129730522Y-66996393D03*
%TO.P,E20,7,D3*%
%TO.N,Net-(E12-D3)*%
X129730522Y-69536393D03*
%TO.P,E20,8,D4*%
%TO.N,Net-(E12-D4)*%
X129730522Y-72076393D03*
%TO.P,E20,9,D5*%
%TO.N,Net-(E12-D5)*%
X129730522Y-74616393D03*
%TO.P,E20,10,D6*%
%TO.N,Net-(E12-D6)*%
X129730522Y-77156393D03*
%TO.P,E20,11,D7*%
%TO.N,Net-(E12-D7)*%
X129730522Y-79696393D03*
%TO.P,E20,12,V_{CC}*%
%TO.N,unconnected-(E20-V_{CC}-Pad12)*%
X129730522Y-82236393D03*
%TO.P,E20,13,PROGRAM*%
%TO.N,unconnected-(E20-PROGRAM-Pad13)*%
X139890522Y-82236393D03*
%TO.P,E20,14,~{CS}*%
%TO.N,Net-(E20-~{CS})*%
X139890522Y-79696393D03*
%TO.P,E20,15,V_{BB}*%
%TO.N,unconnected-(E20-V_{BB}-Pad15)*%
X139890522Y-77156393D03*
%TO.P,E20,16,V_{GG}*%
%TO.N,unconnected-(E20-V_{GG}-Pad16)*%
X139890522Y-74616393D03*
%TO.P,E20,17,A7*%
%TO.N,Net-(E12-A7)*%
X139890522Y-72076393D03*
%TO.P,E20,18,A6*%
%TO.N,Net-(E12-A6)*%
X139890522Y-69536393D03*
%TO.P,E20,19,A5*%
%TO.N,Net-(E12-A5)*%
X139890522Y-66996393D03*
%TO.P,E20,20,A4*%
%TO.N,Net-(E12-A4)*%
X139890522Y-64456393D03*
%TO.P,E20,21,A3*%
%TO.N,Net-(E12-A3)*%
X139890522Y-61916393D03*
%TO.P,E20,22,V_{CC}*%
%TO.N,unconnected-(E20-V_{CC}-Pad22)*%
X139890522Y-59376393D03*
%TO.P,E20,23,V_{CC}*%
%TO.N,unconnected-(E20-V_{CC}-Pad23)*%
X139890522Y-56836393D03*
%TO.P,E20,24,V_{DO}*%
%TO.N,Net-(D1-A)*%
X139890522Y-54296393D03*
%TD*%
D14*
%TO.P,J1,1,Pin_1*%
%TO.N,Net-(J1-Pin_1)*%
X200990522Y-79606393D03*
D15*
%TO.P,J1,2,Pin_2*%
%TO.N,Net-(J1-Pin_2)*%
X199990522Y-79606393D03*
%TD*%
D14*
%TO.P,J2,1,Pin_1*%
%TO.N,Net-(J2-Pin_1)*%
X209660522Y-79596393D03*
D15*
%TO.P,J2,2,Pin_2*%
%TO.N,Net-(J2-Pin_2)*%
X210660522Y-79596393D03*
%TD*%
D12*
%TO.P,E12,1,A2*%
%TO.N,Net-(E12-A2)*%
X112150522Y-54216393D03*
D13*
%TO.P,E12,2,A1*%
%TO.N,Net-(E12-A1)*%
X112150522Y-56756393D03*
%TO.P,E12,3,A0*%
%TO.N,Net-(E12-A0)*%
X112150522Y-59296393D03*
%TO.P,E12,4,D0*%
%TO.N,Net-(E12-D0)*%
X112150522Y-61836393D03*
%TO.P,E12,5,D1*%
%TO.N,Net-(E12-D1)*%
X112150522Y-64376393D03*
%TO.P,E12,6,D2*%
%TO.N,Net-(E12-D2)*%
X112150522Y-66916393D03*
%TO.P,E12,7,D3*%
%TO.N,Net-(E12-D3)*%
X112150522Y-69456393D03*
%TO.P,E12,8,D4*%
%TO.N,Net-(E12-D4)*%
X112150522Y-71996393D03*
%TO.P,E12,9,D5*%
%TO.N,Net-(E12-D5)*%
X112150522Y-74536393D03*
%TO.P,E12,10,D6*%
%TO.N,Net-(E12-D6)*%
X112150522Y-77076393D03*
%TO.P,E12,11,D7*%
%TO.N,Net-(E12-D7)*%
X112150522Y-79616393D03*
%TO.P,E12,12,V_{CC}*%
%TO.N,unconnected-(E12-V_{CC}-Pad12)*%
X112150522Y-82156393D03*
%TO.P,E12,13,PROGRAM*%
%TO.N,unconnected-(E12-PROGRAM-Pad13)*%
X122310522Y-82156393D03*
%TO.P,E12,14,~{CS}*%
%TO.N,Net-(E12-~{CS})*%
X122310522Y-79616393D03*
%TO.P,E12,15,V_{BB}*%
%TO.N,unconnected-(E12-V_{BB}-Pad15)*%
X122310522Y-77076393D03*
%TO.P,E12,16,V_{GG}*%
%TO.N,unconnected-(E12-V_{GG}-Pad16)*%
X122310522Y-74536393D03*
%TO.P,E12,17,A7*%
%TO.N,Net-(E12-A7)*%
X122310522Y-71996393D03*
%TO.P,E12,18,A6*%
%TO.N,Net-(E12-A6)*%
X122310522Y-69456393D03*
%TO.P,E12,19,A5*%
%TO.N,Net-(E12-A5)*%
X122310522Y-66916393D03*
%TO.P,E12,20,A4*%
%TO.N,Net-(E12-A4)*%
X122310522Y-64376393D03*
%TO.P,E12,21,A3*%
%TO.N,Net-(E12-A3)*%
X122310522Y-61836393D03*
%TO.P,E12,22,V_{CC}*%
%TO.N,unconnected-(E12-V_{CC}-Pad22)*%
X122310522Y-59296393D03*
%TO.P,E12,23,V_{CC}*%
%TO.N,unconnected-(E12-V_{CC}-Pad23)*%
X122310522Y-56756393D03*
%TO.P,E12,24,V_{DO}*%
%TO.N,Net-(D1-A)*%
X122310522Y-54216393D03*
%TD*%
D14*
%TO.P,J4,1,Pin_1*%
%TO.N,Net-(D1-K)*%
X195990000Y-79650000D03*
D15*
%TO.P,J4,2,Pin_2*%
%TO.N,Net-(D1-A)*%
X194990000Y-79650000D03*
%TD*%
D16*
%TO.P,U3,1*%
%TO.N,Net-(E20-~{CS})*%
X163650522Y-73696393D03*
D17*
%TO.P,U3,2*%
%TO.N,Net-(E12-~{CS})*%
X162380522Y-73696393D03*
%TO.P,U3,3*%
%TO.N,Net-(U1-A7{slash}D21)*%
X163650522Y-74966393D03*
%TO.P,U3,4*%
%TO.N,Net-(U1-A6{slash}D20)*%
X162380522Y-74966393D03*
%TO.P,U3,5*%
%TO.N,Net-(U1-A7{slash}D21)*%
X163650522Y-76236393D03*
%TO.P,U3,6*%
%TO.N,Net-(E6-~{CS})*%
X162380522Y-76236393D03*
%TO.P,U3,7,VSS*%
%TO.N,Net-(J1-Pin_2)*%
X163650522Y-77506393D03*
%TO.P,U3,8*%
%TO.N,N/C*%
X162380522Y-77506393D03*
%TO.P,U3,9*%
X163650522Y-78776393D03*
%TO.P,U3,10*%
X162380522Y-78776393D03*
%TO.P,U3,11*%
X163650522Y-80046393D03*
%TO.P,U3,12*%
X162380522Y-80046393D03*
%TO.P,U3,13*%
X163650522Y-81316393D03*
%TO.P,U3,14,VDD*%
%TO.N,Net-(J1-Pin_1)*%
X162380522Y-81316393D03*
%TD*%
D12*
%TO.P,U1,1,D1/TX*%
%TO.N,Net-(J2-Pin_2)*%
X207520522Y-54626393D03*
D13*
%TO.P,U1,2,D0/RX*%
%TO.N,Net-(J2-Pin_1)*%
X204980522Y-54626393D03*
%TO.P,U1,3,~{RESET}*%
%TO.N,unconnected-(U1-~{RESET}-Pad3)*%
X202440522Y-54626393D03*
%TO.P,U1,4,GND*%
%TO.N,unconnected-(U1-GND-Pad4)*%
X199900522Y-54626393D03*
%TO.P,U1,5,D2*%
%TO.N,Net-(E12-A7)*%
X197360522Y-54626393D03*
%TO.P,U1,6,~D3*%
%TO.N,Net-(E12-A6)*%
X194820522Y-54626393D03*
%TO.P,U1,7,D4*%
%TO.N,Net-(E12-A5)*%
X192280522Y-54626393D03*
%TO.P,U1,8,~D5*%
%TO.N,Net-(E12-A4)*%
X189740522Y-54626393D03*
%TO.P,U1,9,~D6*%
%TO.N,Net-(E12-A3)*%
X187200522Y-54626393D03*
%TO.P,U1,10,D7*%
%TO.N,Net-(E12-A2)*%
X184660522Y-54626393D03*
%TO.P,U1,11,D8*%
%TO.N,Net-(E12-A1)*%
X182120522Y-54626393D03*
%TO.P,U1,12,~D9*%
%TO.N,Net-(E12-A0)*%
X179580522Y-54626393D03*
%TO.P,U1,13,~D10*%
%TO.N,Net-(E12-D0)*%
X177040522Y-54626393D03*
%TO.P,U1,14,~D11*%
%TO.N,Net-(E12-D1)*%
X174500522Y-54626393D03*
%TO.P,U1,15,D12*%
%TO.N,Net-(E12-D2)*%
X171960522Y-54626393D03*
%TO.P,U1,16,D13*%
%TO.N,Net-(E12-D3)*%
X171960522Y-69866393D03*
%TO.P,U1,17,3V3*%
%TO.N,unconnected-(U1-3V3-Pad17)*%
X174500522Y-69866393D03*
%TO.P,U1,18,AREF*%
%TO.N,unconnected-(U1-AREF-Pad18)*%
X177040522Y-69866393D03*
%TO.P,U1,19,A0/D14*%
%TO.N,Net-(E12-D4)*%
X179580522Y-69866393D03*
%TO.P,U1,20,A1/D15*%
%TO.N,Net-(E12-D5)*%
X182120522Y-69866393D03*
%TO.P,U1,21,A2/D16*%
%TO.N,Net-(E12-D6)*%
X184660522Y-69866393D03*
%TO.P,U1,22,A3/D17*%
%TO.N,Net-(E12-D7)*%
X187200522Y-69866393D03*
%TO.P,U1,23,A4/D18*%
%TO.N,Net-(J3-Pin_2)*%
X189740522Y-69866393D03*
%TO.P,U1,24,A5/D19*%
%TO.N,Net-(J3-Pin_1)*%
X192280522Y-69866393D03*
%TO.P,U1,25,A6/D20*%
%TO.N,Net-(U1-A6{slash}D20)*%
X194820522Y-69866393D03*
%TO.P,U1,26,A7/D21*%
%TO.N,Net-(U1-A7{slash}D21)*%
X197360522Y-69866393D03*
%TO.P,U1,27,+5V*%
%TO.N,unconnected-(U1-+5V-Pad27)*%
X199900522Y-69866393D03*
%TO.P,U1,28,~{RESET}*%
%TO.N,unconnected-(U1-~{RESET}-Pad28)*%
X202440522Y-69866393D03*
%TO.P,U1,29,GND*%
%TO.N,Net-(J1-Pin_2)*%
X204980522Y-69866393D03*
%TO.P,U1,30,VIN*%
%TO.N,Net-(J1-Pin_1)*%
X207520522Y-69866393D03*
%TD*%
D14*
%TO.P,J3,1,Pin_1*%
%TO.N,Net-(J3-Pin_1)*%
X205060522Y-79606393D03*
D15*
%TO.P,J3,2,Pin_2*%
%TO.N,Net-(J3-Pin_2)*%
X206060522Y-79606393D03*
%TD*%
D18*
%TO.N,Net-(U1-A6{slash}D20)*%
X161045022Y-71715893D03*
%TO.N,Net-(E12-A2)*%
X154450522Y-57676393D03*
%TO.N,Net-(E12-A0)*%
X152990522Y-55996393D03*
X152960522Y-58656393D03*
%TO.N,Net-(E12-D0)*%
X151710522Y-56086393D03*
X151700522Y-58686393D03*
%TO.N,Net-(E12-D1)*%
X149810522Y-58730893D03*
X149830522Y-56086393D03*
%TO.N,Net-(E12-D2)*%
X148557821Y-63509094D03*
X148490522Y-56106393D03*
%TO.N,Net-(E12-D6)*%
X153560522Y-81016393D03*
%TO.N,Net-(E12-D7)*%
X103280522Y-80676393D03*
X135955522Y-81111393D03*
X138465522Y-81111393D03*
X101416022Y-80676393D03*
X152100522Y-82216393D03*
%TO.N,Net-(E12-A7)*%
X149050522Y-73306393D03*
X152010522Y-73306393D03*
%TO.N,Net-(D1-A)*%
X198670000Y-67780000D03*
X169260000Y-62600000D03*
X99320522Y-54056393D03*
X134960522Y-54086393D03*
X117160522Y-54106393D03*
X148520522Y-53916393D03*
%TO.N,Net-(E12-~{CS})*%
X160735022Y-74945022D03*
X119350522Y-82976393D03*
X119350522Y-80166393D03*
X160715022Y-77590000D03*
%TD*%
D19*
%TO.N,Net-(U1-A6{slash}D20)*%
X161045022Y-71715893D02*
X161045022Y-73630893D01*
X161045022Y-73630893D02*
X162380522Y-74966393D01*
%TO.N,Net-(E12-A2)*%
X154450522Y-57676393D02*
X154450522Y-56431088D01*
X153285827Y-55266393D02*
X147620522Y-55266393D01*
X154450522Y-56431088D02*
X153285827Y-55266393D01*
X147620522Y-55266393D02*
X146660522Y-54306393D01*
%TO.N,Net-(E12-A0)*%
X152990522Y-55996393D02*
X152990522Y-58626393D01*
%TO.N,Net-(E12-D0)*%
X151700522Y-58686393D02*
X151700522Y-56096393D01*
%TO.N,Net-(E12-D1)*%
X149810522Y-56106393D02*
X149830522Y-56086393D01*
X149810522Y-58730893D02*
X149810522Y-56106393D01*
%TO.N,Net-(E12-D2)*%
X148557821Y-63509094D02*
X148557821Y-56173692D01*
X148557821Y-56173692D02*
X148490522Y-56106393D01*
%TO.N,Net-(E12-D6)*%
X149530522Y-81046393D02*
X153530522Y-81046393D01*
X146660522Y-77166393D02*
X148270522Y-78776393D01*
X148310522Y-79826393D02*
X149530522Y-81046393D01*
X148310522Y-78776393D02*
X148310522Y-79826393D01*
X148270522Y-78776393D02*
X148310522Y-78776393D01*
X153530522Y-81046393D02*
X153560522Y-81016393D01*
%TO.N,Net-(E12-D7)*%
X149170522Y-82216393D02*
X146660522Y-79706393D01*
X103280522Y-80676393D02*
X101416022Y-80676393D01*
X152100522Y-82216393D02*
X149170522Y-82216393D01*
X138465522Y-81111393D02*
X135955522Y-81111393D01*
%TO.N,Net-(E12-A7)*%
X152010522Y-73306393D02*
X149050522Y-73306393D01*
%TO.N,Net-(E12-A6)*%
X111390522Y-70581393D02*
X121185522Y-70581393D01*
X122310522Y-69456393D02*
X123510522Y-68256393D01*
X144935522Y-66511393D02*
X144935522Y-67508780D01*
X111025522Y-68018780D02*
X111025522Y-70216393D01*
X145535522Y-68108779D02*
X145511829Y-68085086D01*
X106250522Y-68106393D02*
X106250522Y-66622789D01*
X110575522Y-67568780D02*
X111025522Y-68018780D01*
X123510522Y-66521393D02*
X123550522Y-66481393D01*
X156820522Y-69546393D02*
X155695522Y-70671393D01*
X141054531Y-66491393D02*
X144915522Y-66491393D01*
X105060522Y-69296393D02*
X106250522Y-68106393D01*
X128605522Y-70002384D02*
X129264531Y-70661393D01*
X145535522Y-70396393D02*
X145535522Y-68108779D01*
X128605522Y-68371394D02*
X128605522Y-70002384D01*
X128129126Y-67894997D02*
X128235522Y-68001393D01*
X128235522Y-68001393D02*
X128155522Y-67921394D01*
X129264531Y-70661393D02*
X129890522Y-70661393D01*
X106250522Y-66622789D02*
X106356918Y-66516393D01*
X106356918Y-66516393D02*
X110575522Y-66516393D01*
X121185522Y-70581393D02*
X122310522Y-69456393D01*
X110575522Y-66516393D02*
X110575522Y-67568780D01*
X138765522Y-70661393D02*
X129890522Y-70661393D01*
X123550522Y-66481393D02*
X128129126Y-66481393D01*
X111025522Y-70216393D02*
X111390522Y-70581393D01*
X141015522Y-68411393D02*
X141015522Y-66530402D01*
X144915522Y-66491393D02*
X144935522Y-66511393D01*
X141015522Y-66530402D02*
X141054531Y-66491393D01*
X139890522Y-69536393D02*
X141015522Y-68411393D01*
X155695522Y-70671393D02*
X145810522Y-70671393D01*
X128605522Y-68371394D02*
X128235522Y-68001393D01*
X144935522Y-67508780D02*
X145511829Y-68085086D01*
X128129126Y-66481393D02*
X128129126Y-67894997D01*
X123510522Y-68256393D02*
X123510522Y-66521393D01*
X139890522Y-69536393D02*
X138765522Y-70661393D01*
X145810522Y-70671393D02*
X145535522Y-70396393D01*
%TO.N,Net-(E12-A5)*%
X139890522Y-66996393D02*
X139265522Y-67621393D01*
X128605522Y-67462384D02*
X129264531Y-68121393D01*
X122310522Y-66916393D02*
X123195522Y-66031393D01*
X139890522Y-66996393D02*
X140845522Y-66041393D01*
X140845522Y-66041393D02*
X145385522Y-66041393D01*
X105480522Y-66756393D02*
X105060522Y-66756393D01*
X138765522Y-68121393D02*
X139265522Y-67621393D01*
X111030522Y-66196393D02*
X110900522Y-66066393D01*
X122310522Y-66916393D02*
X121185522Y-68041393D01*
X155695522Y-68131393D02*
X156070522Y-67756393D01*
X110900522Y-66066393D02*
X106170522Y-66066393D01*
X128315522Y-66031393D02*
X128605522Y-66321393D01*
X106170522Y-66066393D02*
X105480522Y-66756393D01*
X111684531Y-68041393D02*
X111025522Y-67382384D01*
X156820522Y-67006393D02*
X156070522Y-67756393D01*
X123195522Y-66031393D02*
X128315522Y-66031393D01*
X145385522Y-67322384D02*
X146194531Y-68131393D01*
X121185522Y-68041393D02*
X111684531Y-68041393D01*
X146194531Y-68131393D02*
X155695522Y-68131393D01*
X111025522Y-67382384D02*
X111025522Y-66201393D01*
X111025522Y-66201393D02*
X111030522Y-66196393D01*
X128605522Y-66321393D02*
X128605522Y-67462384D01*
X145385522Y-66041393D02*
X145385522Y-67322384D01*
X129264531Y-68121393D02*
X138765522Y-68121393D01*
%TO.N,Net-(E12-A4)*%
X121070522Y-65616393D02*
X106460522Y-65616393D01*
X139890522Y-64456393D02*
X140560522Y-65126393D01*
X156820522Y-64466393D02*
X155695522Y-65591393D01*
X122310522Y-64376393D02*
X121070522Y-65616393D01*
X106460522Y-65616393D02*
X105060522Y-64216393D01*
X141025522Y-65591393D02*
X140560522Y-65126393D01*
X139890522Y-64456393D02*
X138765522Y-65581393D01*
X123515522Y-65581393D02*
X123200522Y-65266393D01*
X122310522Y-64376393D02*
X123200522Y-65266393D01*
X155695522Y-65591393D02*
X141025522Y-65591393D01*
X138765522Y-65581393D02*
X123515522Y-65581393D01*
%TO.N,Net-(E12-A3)*%
X155455522Y-63291393D02*
X155455522Y-64591393D01*
X123515522Y-64931393D02*
X123715522Y-65131393D01*
X154905522Y-65141393D02*
X149165522Y-65141393D01*
X111399328Y-63251393D02*
X120895522Y-63251393D01*
X141025522Y-63051393D02*
X139890522Y-61916393D01*
X120895522Y-63251393D02*
X122310522Y-61836393D01*
X147365522Y-63341393D02*
X145645522Y-63341393D01*
X149165522Y-65141393D02*
X147365522Y-63341393D01*
X122310522Y-61836393D02*
X123515522Y-63041393D01*
X110550522Y-65166393D02*
X110550522Y-64100199D01*
X129289531Y-63306393D02*
X138500522Y-63306393D01*
X144924215Y-65141393D02*
X141245522Y-65141393D01*
X105060522Y-61676393D02*
X106185522Y-62801393D01*
X106185522Y-62801393D02*
X106185522Y-64704997D01*
X128110522Y-64485402D02*
X129289531Y-63306393D01*
X141245522Y-65141393D02*
X141025522Y-64921393D01*
X144950522Y-64036393D02*
X144950522Y-65115086D01*
X144950522Y-65115086D02*
X144924215Y-65141393D01*
X110550522Y-64100199D02*
X111399328Y-63251393D01*
X106185522Y-64704997D02*
X106646918Y-65166393D01*
X155455522Y-64591393D02*
X154905522Y-65141393D01*
X106646918Y-65166393D02*
X110550522Y-65166393D01*
X128135522Y-65098195D02*
X128110522Y-65073195D01*
X156820522Y-61926393D02*
X155455522Y-63291393D01*
X128135522Y-65106393D02*
X128135522Y-65098195D01*
X141025522Y-64921393D02*
X141025522Y-63051393D01*
X128110522Y-65073195D02*
X128110522Y-64485402D01*
X123515522Y-63041393D02*
X123515522Y-64931393D01*
X123715522Y-65131393D02*
X128110522Y-65131393D01*
X128110522Y-65131393D02*
X128135522Y-65106393D01*
X145645522Y-63341393D02*
X144950522Y-64036393D01*
X138500522Y-63306393D02*
X139890522Y-61916393D01*
%TO.N,Net-(D1-A)*%
X183400000Y-62600000D02*
X187860000Y-67060000D01*
X148910522Y-54306393D02*
X148520522Y-53916393D01*
X134960522Y-54086393D02*
X139680522Y-54086393D01*
X187860000Y-67060000D02*
X197950000Y-67060000D01*
X169260000Y-62600000D02*
X183400000Y-62600000D01*
X122200522Y-54106393D02*
X122310522Y-54216393D01*
X156820522Y-54306393D02*
X149540522Y-54306393D01*
X197950000Y-67060000D02*
X198670000Y-67780000D01*
X139680522Y-54086393D02*
X139890522Y-54296393D01*
X149540522Y-54306393D02*
X148910522Y-54306393D01*
X99320522Y-54056393D02*
X105060522Y-54056393D01*
X117160522Y-54106393D02*
X122200522Y-54106393D01*
%TO.N,Net-(E12-~{CS})*%
X119350522Y-82976393D02*
X119350522Y-80166393D01*
X160715022Y-74945022D02*
X160735022Y-74945022D01*
X160715022Y-77590000D02*
X160715022Y-74945022D01*
%TD*%
M02*
