%TF.GenerationSoftware,KiCad,Pcbnew,7.0.1-0*%
%TF.CreationDate,2023-12-21T15:42:22+00:00*%
%TF.ProjectId,orb,6f72622e-6b69-4636-9164-5f7063625858,rev?*%
%TF.SameCoordinates,Original*%
%TF.FileFunction,Soldermask,Top*%
%TF.FilePolarity,Negative*%
%FSLAX46Y46*%
G04 Gerber Fmt 4.6, Leading zero omitted, Abs format (unit mm)*
G04 Created by KiCad (PCBNEW 7.0.1-0) date 2023-12-21 15:42:22*
%MOMM*%
%LPD*%
G01*
G04 APERTURE LIST*
%ADD10R,2.200000X2.200000*%
%ADD11O,2.200000X2.200000*%
%ADD12R,1.600000X1.600000*%
%ADD13O,1.600000X1.600000*%
%ADD14R,0.850000X0.850000*%
%ADD15O,0.850000X0.850000*%
%ADD16R,1.000000X1.000000*%
%ADD17O,1.000000X1.000000*%
G04 APERTURE END LIST*
D10*
%TO.C,D1*%
X193710000Y-75640000D03*
D11*
X183550000Y-75640000D03*
%TD*%
D12*
%TO.C,E35*%
X146660522Y-54306393D03*
D13*
X146660522Y-56846393D03*
X146660522Y-59386393D03*
X146660522Y-61926393D03*
X146660522Y-64466393D03*
X146660522Y-67006393D03*
X146660522Y-69546393D03*
X146660522Y-72086393D03*
X146660522Y-74626393D03*
X146660522Y-77166393D03*
X146660522Y-79706393D03*
X146660522Y-82246393D03*
X156820522Y-82246393D03*
X156820522Y-79706393D03*
X156820522Y-77166393D03*
X156820522Y-74626393D03*
X156820522Y-72086393D03*
X156820522Y-69546393D03*
X156820522Y-67006393D03*
X156820522Y-64466393D03*
X156820522Y-61926393D03*
X156820522Y-59386393D03*
X156820522Y-56846393D03*
X156820522Y-54306393D03*
%TD*%
D12*
%TO.C,E6*%
X94900522Y-54056393D03*
D13*
X94900522Y-56596393D03*
X94900522Y-59136393D03*
X94900522Y-61676393D03*
X94900522Y-64216393D03*
X94900522Y-66756393D03*
X94900522Y-69296393D03*
X94900522Y-71836393D03*
X94900522Y-74376393D03*
X94900522Y-76916393D03*
X94900522Y-79456393D03*
X94900522Y-81996393D03*
X105060522Y-81996393D03*
X105060522Y-79456393D03*
X105060522Y-76916393D03*
X105060522Y-74376393D03*
X105060522Y-71836393D03*
X105060522Y-69296393D03*
X105060522Y-66756393D03*
X105060522Y-64216393D03*
X105060522Y-61676393D03*
X105060522Y-59136393D03*
X105060522Y-56596393D03*
X105060522Y-54056393D03*
%TD*%
D12*
%TO.C,E20*%
X129730522Y-54296393D03*
D13*
X129730522Y-56836393D03*
X129730522Y-59376393D03*
X129730522Y-61916393D03*
X129730522Y-64456393D03*
X129730522Y-66996393D03*
X129730522Y-69536393D03*
X129730522Y-72076393D03*
X129730522Y-74616393D03*
X129730522Y-77156393D03*
X129730522Y-79696393D03*
X129730522Y-82236393D03*
X139890522Y-82236393D03*
X139890522Y-79696393D03*
X139890522Y-77156393D03*
X139890522Y-74616393D03*
X139890522Y-72076393D03*
X139890522Y-69536393D03*
X139890522Y-66996393D03*
X139890522Y-64456393D03*
X139890522Y-61916393D03*
X139890522Y-59376393D03*
X139890522Y-56836393D03*
X139890522Y-54296393D03*
%TD*%
D14*
%TO.C,J1*%
X200990522Y-79606393D03*
D15*
X199990522Y-79606393D03*
%TD*%
D14*
%TO.C,J2*%
X209660522Y-79596393D03*
D15*
X210660522Y-79596393D03*
%TD*%
D12*
%TO.C,E12*%
X112150522Y-54216393D03*
D13*
X112150522Y-56756393D03*
X112150522Y-59296393D03*
X112150522Y-61836393D03*
X112150522Y-64376393D03*
X112150522Y-66916393D03*
X112150522Y-69456393D03*
X112150522Y-71996393D03*
X112150522Y-74536393D03*
X112150522Y-77076393D03*
X112150522Y-79616393D03*
X112150522Y-82156393D03*
X122310522Y-82156393D03*
X122310522Y-79616393D03*
X122310522Y-77076393D03*
X122310522Y-74536393D03*
X122310522Y-71996393D03*
X122310522Y-69456393D03*
X122310522Y-66916393D03*
X122310522Y-64376393D03*
X122310522Y-61836393D03*
X122310522Y-59296393D03*
X122310522Y-56756393D03*
X122310522Y-54216393D03*
%TD*%
D14*
%TO.C,J4*%
X195990000Y-79650000D03*
D15*
X194990000Y-79650000D03*
%TD*%
D16*
%TO.C,U3*%
X163650522Y-73696393D03*
D17*
X162380522Y-73696393D03*
X163650522Y-74966393D03*
X162380522Y-74966393D03*
X163650522Y-76236393D03*
X162380522Y-76236393D03*
X163650522Y-77506393D03*
X162380522Y-77506393D03*
X163650522Y-78776393D03*
X162380522Y-78776393D03*
X163650522Y-80046393D03*
X162380522Y-80046393D03*
X163650522Y-81316393D03*
X162380522Y-81316393D03*
%TD*%
D12*
%TO.C,U1*%
X207520522Y-54626393D03*
D13*
X204980522Y-54626393D03*
X202440522Y-54626393D03*
X199900522Y-54626393D03*
X197360522Y-54626393D03*
X194820522Y-54626393D03*
X192280522Y-54626393D03*
X189740522Y-54626393D03*
X187200522Y-54626393D03*
X184660522Y-54626393D03*
X182120522Y-54626393D03*
X179580522Y-54626393D03*
X177040522Y-54626393D03*
X174500522Y-54626393D03*
X171960522Y-54626393D03*
X171960522Y-69866393D03*
X174500522Y-69866393D03*
X177040522Y-69866393D03*
X179580522Y-69866393D03*
X182120522Y-69866393D03*
X184660522Y-69866393D03*
X187200522Y-69866393D03*
X189740522Y-69866393D03*
X192280522Y-69866393D03*
X194820522Y-69866393D03*
X197360522Y-69866393D03*
X199900522Y-69866393D03*
X202440522Y-69866393D03*
X204980522Y-69866393D03*
X207520522Y-69866393D03*
%TD*%
D14*
%TO.C,J3*%
X205060522Y-79606393D03*
D15*
X206060522Y-79606393D03*
%TD*%
M02*
