%TF.GenerationSoftware,KiCad,Pcbnew,7.0.1-0*%
%TF.CreationDate,2023-12-21T15:42:22+00:00*%
%TF.ProjectId,orb,6f72622e-6b69-4636-9164-5f7063625858,rev?*%
%TF.SameCoordinates,Original*%
%TF.FileFunction,Copper,L2,Bot*%
%TF.FilePolarity,Positive*%
%FSLAX46Y46*%
G04 Gerber Fmt 4.6, Leading zero omitted, Abs format (unit mm)*
G04 Created by KiCad (PCBNEW 7.0.1-0) date 2023-12-21 15:42:22*
%MOMM*%
%LPD*%
G01*
G04 APERTURE LIST*
%TA.AperFunction,ComponentPad*%
%ADD10R,2.200000X2.200000*%
%TD*%
%TA.AperFunction,ComponentPad*%
%ADD11O,2.200000X2.200000*%
%TD*%
%TA.AperFunction,ComponentPad*%
%ADD12R,1.600000X1.600000*%
%TD*%
%TA.AperFunction,ComponentPad*%
%ADD13O,1.600000X1.600000*%
%TD*%
%TA.AperFunction,ComponentPad*%
%ADD14R,0.850000X0.850000*%
%TD*%
%TA.AperFunction,ComponentPad*%
%ADD15O,0.850000X0.850000*%
%TD*%
%TA.AperFunction,ComponentPad*%
%ADD16R,1.000000X1.000000*%
%TD*%
%TA.AperFunction,ComponentPad*%
%ADD17O,1.000000X1.000000*%
%TD*%
%TA.AperFunction,ViaPad*%
%ADD18C,0.800000*%
%TD*%
%TA.AperFunction,Conductor*%
%ADD19C,0.250000*%
%TD*%
G04 APERTURE END LIST*
D10*
%TO.P,D1,1,K*%
%TO.N,Net-(D1-K)*%
X193710000Y-75640000D03*
D11*
%TO.P,D1,2,A*%
%TO.N,Net-(D1-A)*%
X183550000Y-75640000D03*
%TD*%
D12*
%TO.P,E35,1,A2*%
%TO.N,Net-(E12-A2)*%
X146660522Y-54306393D03*
D13*
%TO.P,E35,2,A1*%
%TO.N,Net-(E12-A1)*%
X146660522Y-56846393D03*
%TO.P,E35,3,A0*%
%TO.N,Net-(E12-A0)*%
X146660522Y-59386393D03*
%TO.P,E35,4,D0*%
%TO.N,Net-(E12-D0)*%
X146660522Y-61926393D03*
%TO.P,E35,5,D1*%
%TO.N,Net-(E12-D1)*%
X146660522Y-64466393D03*
%TO.P,E35,6,D2*%
%TO.N,Net-(E12-D2)*%
X146660522Y-67006393D03*
%TO.P,E35,7,D3*%
%TO.N,Net-(E12-D3)*%
X146660522Y-69546393D03*
%TO.P,E35,8,D4*%
%TO.N,Net-(E12-D4)*%
X146660522Y-72086393D03*
%TO.P,E35,9,D5*%
%TO.N,Net-(E12-D5)*%
X146660522Y-74626393D03*
%TO.P,E35,10,D6*%
%TO.N,Net-(E12-D6)*%
X146660522Y-77166393D03*
%TO.P,E35,11,D7*%
%TO.N,Net-(E12-D7)*%
X146660522Y-79706393D03*
%TO.P,E35,12,V_{CC}*%
%TO.N,unconnected-(E35-V_{CC}-Pad12)*%
X146660522Y-82246393D03*
%TO.P,E35,13,PROGRAM*%
%TO.N,unconnected-(E35-PROGRAM-Pad13)*%
X156820522Y-82246393D03*
%TO.P,E35,14,~{CS}*%
%TO.N,unconnected-(E35-~{CS}-Pad14)*%
X156820522Y-79706393D03*
%TO.P,E35,15,V_{BB}*%
%TO.N,unconnected-(E35-V_{BB}-Pad15)*%
X156820522Y-77166393D03*
%TO.P,E35,16,V_{GG}*%
%TO.N,unconnected-(E35-V_{GG}-Pad16)*%
X156820522Y-74626393D03*
%TO.P,E35,17,A7*%
%TO.N,Net-(E12-A7)*%
X156820522Y-72086393D03*
%TO.P,E35,18,A6*%
%TO.N,Net-(E12-A6)*%
X156820522Y-69546393D03*
%TO.P,E35,19,A5*%
%TO.N,Net-(E12-A5)*%
X156820522Y-67006393D03*
%TO.P,E35,20,A4*%
%TO.N,Net-(E12-A4)*%
X156820522Y-64466393D03*
%TO.P,E35,21,A3*%
%TO.N,Net-(E12-A3)*%
X156820522Y-61926393D03*
%TO.P,E35,22,V_{CC}*%
%TO.N,unconnected-(E35-V_{CC}-Pad22)*%
X156820522Y-59386393D03*
%TO.P,E35,23,V_{CC}*%
%TO.N,unconnected-(E35-V_{CC}-Pad23)*%
X156820522Y-56846393D03*
%TO.P,E35,24,V_{DO}*%
%TO.N,Net-(D1-A)*%
X156820522Y-54306393D03*
%TD*%
D12*
%TO.P,E6,1,A2*%
%TO.N,Net-(E12-A2)*%
X94900522Y-54056393D03*
D13*
%TO.P,E6,2,A1*%
%TO.N,Net-(E12-A1)*%
X94900522Y-56596393D03*
%TO.P,E6,3,A0*%
%TO.N,Net-(E12-A0)*%
X94900522Y-59136393D03*
%TO.P,E6,4,D0*%
%TO.N,Net-(E12-D0)*%
X94900522Y-61676393D03*
%TO.P,E6,5,D1*%
%TO.N,Net-(E12-D1)*%
X94900522Y-64216393D03*
%TO.P,E6,6,D2*%
%TO.N,Net-(E12-D2)*%
X94900522Y-66756393D03*
%TO.P,E6,7,D3*%
%TO.N,Net-(E12-D3)*%
X94900522Y-69296393D03*
%TO.P,E6,8,D4*%
%TO.N,Net-(E12-D4)*%
X94900522Y-71836393D03*
%TO.P,E6,9,D5*%
%TO.N,Net-(E12-D5)*%
X94900522Y-74376393D03*
%TO.P,E6,10,D6*%
%TO.N,Net-(E12-D6)*%
X94900522Y-76916393D03*
%TO.P,E6,11,D7*%
%TO.N,Net-(E12-D7)*%
X94900522Y-79456393D03*
%TO.P,E6,12,V_{CC}*%
%TO.N,unconnected-(E6-V_{CC}-Pad12)*%
X94900522Y-81996393D03*
%TO.P,E6,13,PROGRAM*%
%TO.N,unconnected-(E6-PROGRAM-Pad13)*%
X105060522Y-81996393D03*
%TO.P,E6,14,~{CS}*%
%TO.N,Net-(E6-~{CS})*%
X105060522Y-79456393D03*
%TO.P,E6,15,V_{BB}*%
%TO.N,unconnected-(E6-V_{BB}-Pad15)*%
X105060522Y-76916393D03*
%TO.P,E6,16,V_{GG}*%
%TO.N,unconnected-(E6-V_{GG}-Pad16)*%
X105060522Y-74376393D03*
%TO.P,E6,17,A7*%
%TO.N,Net-(E12-A7)*%
X105060522Y-71836393D03*
%TO.P,E6,18,A6*%
%TO.N,Net-(E12-A6)*%
X105060522Y-69296393D03*
%TO.P,E6,19,A5*%
%TO.N,Net-(E12-A5)*%
X105060522Y-66756393D03*
%TO.P,E6,20,A4*%
%TO.N,Net-(E12-A4)*%
X105060522Y-64216393D03*
%TO.P,E6,21,A3*%
%TO.N,Net-(E12-A3)*%
X105060522Y-61676393D03*
%TO.P,E6,22,V_{CC}*%
%TO.N,unconnected-(E6-V_{CC}-Pad22)*%
X105060522Y-59136393D03*
%TO.P,E6,23,V_{CC}*%
%TO.N,unconnected-(E6-V_{CC}-Pad23)*%
X105060522Y-56596393D03*
%TO.P,E6,24,V_{DO}*%
%TO.N,Net-(D1-A)*%
X105060522Y-54056393D03*
%TD*%
D12*
%TO.P,E20,1,A2*%
%TO.N,Net-(E12-A2)*%
X129730522Y-54296393D03*
D13*
%TO.P,E20,2,A1*%
%TO.N,Net-(E12-A1)*%
X129730522Y-56836393D03*
%TO.P,E20,3,A0*%
%TO.N,Net-(E12-A0)*%
X129730522Y-59376393D03*
%TO.P,E20,4,D0*%
%TO.N,Net-(E12-D0)*%
X129730522Y-61916393D03*
%TO.P,E20,5,D1*%
%TO.N,Net-(E12-D1)*%
X129730522Y-64456393D03*
%TO.P,E20,6,D2*%
%TO.N,Net-(E12-D2)*%
X129730522Y-66996393D03*
%TO.P,E20,7,D3*%
%TO.N,Net-(E12-D3)*%
X129730522Y-69536393D03*
%TO.P,E20,8,D4*%
%TO.N,Net-(E12-D4)*%
X129730522Y-72076393D03*
%TO.P,E20,9,D5*%
%TO.N,Net-(E12-D5)*%
X129730522Y-74616393D03*
%TO.P,E20,10,D6*%
%TO.N,Net-(E12-D6)*%
X129730522Y-77156393D03*
%TO.P,E20,11,D7*%
%TO.N,Net-(E12-D7)*%
X129730522Y-79696393D03*
%TO.P,E20,12,V_{CC}*%
%TO.N,unconnected-(E20-V_{CC}-Pad12)*%
X129730522Y-82236393D03*
%TO.P,E20,13,PROGRAM*%
%TO.N,unconnected-(E20-PROGRAM-Pad13)*%
X139890522Y-82236393D03*
%TO.P,E20,14,~{CS}*%
%TO.N,Net-(E20-~{CS})*%
X139890522Y-79696393D03*
%TO.P,E20,15,V_{BB}*%
%TO.N,unconnected-(E20-V_{BB}-Pad15)*%
X139890522Y-77156393D03*
%TO.P,E20,16,V_{GG}*%
%TO.N,unconnected-(E20-V_{GG}-Pad16)*%
X139890522Y-74616393D03*
%TO.P,E20,17,A7*%
%TO.N,Net-(E12-A7)*%
X139890522Y-72076393D03*
%TO.P,E20,18,A6*%
%TO.N,Net-(E12-A6)*%
X139890522Y-69536393D03*
%TO.P,E20,19,A5*%
%TO.N,Net-(E12-A5)*%
X139890522Y-66996393D03*
%TO.P,E20,20,A4*%
%TO.N,Net-(E12-A4)*%
X139890522Y-64456393D03*
%TO.P,E20,21,A3*%
%TO.N,Net-(E12-A3)*%
X139890522Y-61916393D03*
%TO.P,E20,22,V_{CC}*%
%TO.N,unconnected-(E20-V_{CC}-Pad22)*%
X139890522Y-59376393D03*
%TO.P,E20,23,V_{CC}*%
%TO.N,unconnected-(E20-V_{CC}-Pad23)*%
X139890522Y-56836393D03*
%TO.P,E20,24,V_{DO}*%
%TO.N,Net-(D1-A)*%
X139890522Y-54296393D03*
%TD*%
D14*
%TO.P,J1,1,Pin_1*%
%TO.N,Net-(J1-Pin_1)*%
X200990522Y-79606393D03*
D15*
%TO.P,J1,2,Pin_2*%
%TO.N,Net-(J1-Pin_2)*%
X199990522Y-79606393D03*
%TD*%
D14*
%TO.P,J2,1,Pin_1*%
%TO.N,Net-(J2-Pin_1)*%
X209660522Y-79596393D03*
D15*
%TO.P,J2,2,Pin_2*%
%TO.N,Net-(J2-Pin_2)*%
X210660522Y-79596393D03*
%TD*%
D12*
%TO.P,E12,1,A2*%
%TO.N,Net-(E12-A2)*%
X112150522Y-54216393D03*
D13*
%TO.P,E12,2,A1*%
%TO.N,Net-(E12-A1)*%
X112150522Y-56756393D03*
%TO.P,E12,3,A0*%
%TO.N,Net-(E12-A0)*%
X112150522Y-59296393D03*
%TO.P,E12,4,D0*%
%TO.N,Net-(E12-D0)*%
X112150522Y-61836393D03*
%TO.P,E12,5,D1*%
%TO.N,Net-(E12-D1)*%
X112150522Y-64376393D03*
%TO.P,E12,6,D2*%
%TO.N,Net-(E12-D2)*%
X112150522Y-66916393D03*
%TO.P,E12,7,D3*%
%TO.N,Net-(E12-D3)*%
X112150522Y-69456393D03*
%TO.P,E12,8,D4*%
%TO.N,Net-(E12-D4)*%
X112150522Y-71996393D03*
%TO.P,E12,9,D5*%
%TO.N,Net-(E12-D5)*%
X112150522Y-74536393D03*
%TO.P,E12,10,D6*%
%TO.N,Net-(E12-D6)*%
X112150522Y-77076393D03*
%TO.P,E12,11,D7*%
%TO.N,Net-(E12-D7)*%
X112150522Y-79616393D03*
%TO.P,E12,12,V_{CC}*%
%TO.N,unconnected-(E12-V_{CC}-Pad12)*%
X112150522Y-82156393D03*
%TO.P,E12,13,PROGRAM*%
%TO.N,unconnected-(E12-PROGRAM-Pad13)*%
X122310522Y-82156393D03*
%TO.P,E12,14,~{CS}*%
%TO.N,Net-(E12-~{CS})*%
X122310522Y-79616393D03*
%TO.P,E12,15,V_{BB}*%
%TO.N,unconnected-(E12-V_{BB}-Pad15)*%
X122310522Y-77076393D03*
%TO.P,E12,16,V_{GG}*%
%TO.N,unconnected-(E12-V_{GG}-Pad16)*%
X122310522Y-74536393D03*
%TO.P,E12,17,A7*%
%TO.N,Net-(E12-A7)*%
X122310522Y-71996393D03*
%TO.P,E12,18,A6*%
%TO.N,Net-(E12-A6)*%
X122310522Y-69456393D03*
%TO.P,E12,19,A5*%
%TO.N,Net-(E12-A5)*%
X122310522Y-66916393D03*
%TO.P,E12,20,A4*%
%TO.N,Net-(E12-A4)*%
X122310522Y-64376393D03*
%TO.P,E12,21,A3*%
%TO.N,Net-(E12-A3)*%
X122310522Y-61836393D03*
%TO.P,E12,22,V_{CC}*%
%TO.N,unconnected-(E12-V_{CC}-Pad22)*%
X122310522Y-59296393D03*
%TO.P,E12,23,V_{CC}*%
%TO.N,unconnected-(E12-V_{CC}-Pad23)*%
X122310522Y-56756393D03*
%TO.P,E12,24,V_{DO}*%
%TO.N,Net-(D1-A)*%
X122310522Y-54216393D03*
%TD*%
D14*
%TO.P,J4,1,Pin_1*%
%TO.N,Net-(D1-K)*%
X195990000Y-79650000D03*
D15*
%TO.P,J4,2,Pin_2*%
%TO.N,Net-(D1-A)*%
X194990000Y-79650000D03*
%TD*%
D16*
%TO.P,U3,1*%
%TO.N,Net-(E20-~{CS})*%
X163650522Y-73696393D03*
D17*
%TO.P,U3,2*%
%TO.N,Net-(E12-~{CS})*%
X162380522Y-73696393D03*
%TO.P,U3,3*%
%TO.N,Net-(U1-A7{slash}D21)*%
X163650522Y-74966393D03*
%TO.P,U3,4*%
%TO.N,Net-(U1-A6{slash}D20)*%
X162380522Y-74966393D03*
%TO.P,U3,5*%
%TO.N,Net-(U1-A7{slash}D21)*%
X163650522Y-76236393D03*
%TO.P,U3,6*%
%TO.N,Net-(E6-~{CS})*%
X162380522Y-76236393D03*
%TO.P,U3,7,VSS*%
%TO.N,Net-(J1-Pin_2)*%
X163650522Y-77506393D03*
%TO.P,U3,8*%
%TO.N,N/C*%
X162380522Y-77506393D03*
%TO.P,U3,9*%
X163650522Y-78776393D03*
%TO.P,U3,10*%
X162380522Y-78776393D03*
%TO.P,U3,11*%
X163650522Y-80046393D03*
%TO.P,U3,12*%
X162380522Y-80046393D03*
%TO.P,U3,13*%
X163650522Y-81316393D03*
%TO.P,U3,14,VDD*%
%TO.N,Net-(J1-Pin_1)*%
X162380522Y-81316393D03*
%TD*%
D12*
%TO.P,U1,1,D1/TX*%
%TO.N,Net-(J2-Pin_2)*%
X207520522Y-54626393D03*
D13*
%TO.P,U1,2,D0/RX*%
%TO.N,Net-(J2-Pin_1)*%
X204980522Y-54626393D03*
%TO.P,U1,3,~{RESET}*%
%TO.N,unconnected-(U1-~{RESET}-Pad3)*%
X202440522Y-54626393D03*
%TO.P,U1,4,GND*%
%TO.N,unconnected-(U1-GND-Pad4)*%
X199900522Y-54626393D03*
%TO.P,U1,5,D2*%
%TO.N,Net-(E12-A7)*%
X197360522Y-54626393D03*
%TO.P,U1,6,~D3*%
%TO.N,Net-(E12-A6)*%
X194820522Y-54626393D03*
%TO.P,U1,7,D4*%
%TO.N,Net-(E12-A5)*%
X192280522Y-54626393D03*
%TO.P,U1,8,~D5*%
%TO.N,Net-(E12-A4)*%
X189740522Y-54626393D03*
%TO.P,U1,9,~D6*%
%TO.N,Net-(E12-A3)*%
X187200522Y-54626393D03*
%TO.P,U1,10,D7*%
%TO.N,Net-(E12-A2)*%
X184660522Y-54626393D03*
%TO.P,U1,11,D8*%
%TO.N,Net-(E12-A1)*%
X182120522Y-54626393D03*
%TO.P,U1,12,~D9*%
%TO.N,Net-(E12-A0)*%
X179580522Y-54626393D03*
%TO.P,U1,13,~D10*%
%TO.N,Net-(E12-D0)*%
X177040522Y-54626393D03*
%TO.P,U1,14,~D11*%
%TO.N,Net-(E12-D1)*%
X174500522Y-54626393D03*
%TO.P,U1,15,D12*%
%TO.N,Net-(E12-D2)*%
X171960522Y-54626393D03*
%TO.P,U1,16,D13*%
%TO.N,Net-(E12-D3)*%
X171960522Y-69866393D03*
%TO.P,U1,17,3V3*%
%TO.N,unconnected-(U1-3V3-Pad17)*%
X174500522Y-69866393D03*
%TO.P,U1,18,AREF*%
%TO.N,unconnected-(U1-AREF-Pad18)*%
X177040522Y-69866393D03*
%TO.P,U1,19,A0/D14*%
%TO.N,Net-(E12-D4)*%
X179580522Y-69866393D03*
%TO.P,U1,20,A1/D15*%
%TO.N,Net-(E12-D5)*%
X182120522Y-69866393D03*
%TO.P,U1,21,A2/D16*%
%TO.N,Net-(E12-D6)*%
X184660522Y-69866393D03*
%TO.P,U1,22,A3/D17*%
%TO.N,Net-(E12-D7)*%
X187200522Y-69866393D03*
%TO.P,U1,23,A4/D18*%
%TO.N,Net-(J3-Pin_2)*%
X189740522Y-69866393D03*
%TO.P,U1,24,A5/D19*%
%TO.N,Net-(J3-Pin_1)*%
X192280522Y-69866393D03*
%TO.P,U1,25,A6/D20*%
%TO.N,Net-(U1-A6{slash}D20)*%
X194820522Y-69866393D03*
%TO.P,U1,26,A7/D21*%
%TO.N,Net-(U1-A7{slash}D21)*%
X197360522Y-69866393D03*
%TO.P,U1,27,+5V*%
%TO.N,unconnected-(U1-+5V-Pad27)*%
X199900522Y-69866393D03*
%TO.P,U1,28,~{RESET}*%
%TO.N,unconnected-(U1-~{RESET}-Pad28)*%
X202440522Y-69866393D03*
%TO.P,U1,29,GND*%
%TO.N,Net-(J1-Pin_2)*%
X204980522Y-69866393D03*
%TO.P,U1,30,VIN*%
%TO.N,Net-(J1-Pin_1)*%
X207520522Y-69866393D03*
%TD*%
D14*
%TO.P,J3,1,Pin_1*%
%TO.N,Net-(J3-Pin_1)*%
X205060522Y-79606393D03*
D15*
%TO.P,J3,2,Pin_2*%
%TO.N,Net-(J3-Pin_2)*%
X206060522Y-79606393D03*
%TD*%
D18*
%TO.N,Net-(U1-A6{slash}D20)*%
X161045022Y-71715893D03*
%TO.N,Net-(E12-A2)*%
X154450522Y-57676393D03*
%TO.N,Net-(E12-A0)*%
X152990522Y-55996393D03*
X152960522Y-58656393D03*
%TO.N,Net-(E12-D0)*%
X151710522Y-56086393D03*
X151700522Y-58686393D03*
%TO.N,Net-(E12-D1)*%
X149810522Y-58730893D03*
X149830522Y-56086393D03*
%TO.N,Net-(E12-D2)*%
X148557821Y-63509094D03*
X148490522Y-56106393D03*
%TO.N,Net-(E12-D6)*%
X153560522Y-81016393D03*
%TO.N,Net-(E12-D7)*%
X103280522Y-80676393D03*
X135955522Y-81111393D03*
X138465522Y-81111393D03*
X101416022Y-80676393D03*
X152100522Y-82216393D03*
%TO.N,Net-(E12-A7)*%
X149050522Y-73306393D03*
X152010522Y-73306393D03*
%TO.N,Net-(D1-A)*%
X198670000Y-67780000D03*
X169260000Y-62600000D03*
X99320522Y-54056393D03*
X134960522Y-54086393D03*
X117160522Y-54106393D03*
X148520522Y-53916393D03*
%TO.N,Net-(E12-~{CS})*%
X160735022Y-74945022D03*
X119350522Y-82976393D03*
X119350522Y-80166393D03*
X160715022Y-77590000D03*
%TD*%
D19*
%TO.N,Net-(D1-K)*%
X195990000Y-76100000D02*
X195530000Y-75640000D01*
X195530000Y-75640000D02*
X193710000Y-75640000D01*
X195990000Y-79650000D02*
X195990000Y-76100000D01*
%TO.N,Net-(U1-A6{slash}D20)*%
X193260522Y-71426393D02*
X186276918Y-71426393D01*
X184836918Y-72866393D02*
X170124938Y-72866393D01*
X186276918Y-71426393D02*
X184836918Y-72866393D01*
X168699938Y-71441393D02*
X160935522Y-71441393D01*
X160935522Y-71606393D02*
X161045022Y-71715893D01*
X170124938Y-72866393D02*
X168699938Y-71441393D01*
X194820522Y-69866393D02*
X193260522Y-71426393D01*
X160935522Y-71441393D02*
X160935522Y-71606393D01*
%TO.N,Net-(U1-A7{slash}D21)*%
X164300522Y-74946393D02*
X164496393Y-74946393D01*
X168513542Y-71891393D02*
X165155522Y-71891393D01*
X164496393Y-74946393D02*
X164720000Y-75170000D01*
X185023314Y-73316393D02*
X169938542Y-73316393D01*
X164520000Y-76290000D02*
X163704129Y-76290000D01*
X164720000Y-75170000D02*
X164720000Y-76090000D01*
X165155522Y-71891393D02*
X164730522Y-72316393D01*
X163650522Y-74966393D02*
X163670522Y-74946393D01*
X186463314Y-71876393D02*
X185023314Y-73316393D01*
X164730522Y-74516393D02*
X164300522Y-74946393D01*
X164720000Y-76090000D02*
X164520000Y-76290000D01*
X169938542Y-73316393D02*
X168513542Y-71891393D01*
X197360522Y-69866393D02*
X195350522Y-71876393D01*
X164730522Y-72316393D02*
X164730522Y-74516393D01*
X195350522Y-71876393D02*
X186463314Y-71876393D01*
X163704129Y-76290000D02*
X163650522Y-76236393D01*
X163670522Y-74946393D02*
X164300522Y-74946393D01*
%TO.N,Net-(E12-A2)*%
X112150522Y-54216393D02*
X110865522Y-52931393D01*
X158170522Y-62486393D02*
X158170522Y-61216393D01*
X128525522Y-53091393D02*
X121844531Y-53091393D01*
X113011513Y-55077384D02*
X112150522Y-54216393D01*
X110865522Y-52931393D02*
X104165522Y-52931393D01*
X182313542Y-66491393D02*
X159311918Y-66491393D01*
X102504531Y-55021393D02*
X99210522Y-55021393D01*
X154450522Y-59686393D02*
X154450522Y-57676393D01*
X159230522Y-63546393D02*
X158170522Y-62486393D01*
X129730522Y-54296393D02*
X128525522Y-53091393D01*
X104165522Y-53360402D02*
X102504531Y-55021393D01*
X99980522Y-55021393D02*
X95865522Y-55021393D01*
X138160522Y-53171393D02*
X136070522Y-55261393D01*
X130695522Y-55261393D02*
X129730522Y-54296393D01*
X119858540Y-55077384D02*
X116010522Y-55077384D01*
X95865522Y-55021393D02*
X94900522Y-54056393D01*
X155440522Y-60676393D02*
X154450522Y-59686393D01*
X146660522Y-54306393D02*
X145525522Y-53171393D01*
X121844531Y-53091393D02*
X119858540Y-55077384D01*
X145525522Y-53171393D02*
X138160522Y-53171393D01*
X116890522Y-55077384D02*
X113011513Y-55077384D01*
X184660522Y-64144413D02*
X182313542Y-66491393D01*
X159311918Y-66491393D02*
X159230522Y-66409997D01*
X184660522Y-54626393D02*
X184660522Y-64144413D01*
X136070522Y-55261393D02*
X130695522Y-55261393D01*
X104165522Y-52931393D02*
X104165522Y-53360402D01*
X159230522Y-66409997D02*
X159230522Y-63546393D01*
X158170522Y-61216393D02*
X157630522Y-60676393D01*
X157630522Y-60676393D02*
X155440522Y-60676393D01*
%TO.N,Net-(E12-A1)*%
X145525522Y-55711393D02*
X130855522Y-55711393D01*
X112150522Y-56756393D02*
X110865522Y-55471393D01*
X182120522Y-66016393D02*
X182095522Y-66041393D01*
X159735522Y-66041393D02*
X159680522Y-65986393D01*
X158658720Y-62338195D02*
X158658720Y-59214591D01*
X182095522Y-66041393D02*
X159735522Y-66041393D01*
X128421513Y-55527384D02*
X113379531Y-55527384D01*
X159680522Y-65986393D02*
X159680522Y-63359997D01*
X155070022Y-56845893D02*
X146661022Y-56845893D01*
X157490522Y-58046393D02*
X156270522Y-58046393D01*
X158658720Y-59214591D02*
X157490522Y-58046393D01*
X146661022Y-56845893D02*
X146660522Y-56846393D01*
X146660522Y-56846393D02*
X145525522Y-55711393D01*
X156270522Y-58046393D02*
X155070022Y-56845893D01*
X96025522Y-55471393D02*
X94900522Y-56596393D01*
X110865522Y-55471393D02*
X96025522Y-55471393D01*
X113379531Y-55527384D02*
X112150522Y-56756393D01*
X129730522Y-56836393D02*
X128421513Y-55527384D01*
X130855522Y-55711393D02*
X129730522Y-56836393D01*
X159680522Y-63359997D02*
X158658720Y-62338195D01*
X182120522Y-54626393D02*
X182120522Y-66016393D01*
%TO.N,Net-(E12-A0)*%
X179580522Y-54626393D02*
X179580522Y-65476393D01*
X160165522Y-65591393D02*
X160130522Y-65556393D01*
X129730522Y-59376393D02*
X128525522Y-58171393D01*
X159108720Y-62151799D02*
X159108720Y-59028195D01*
X154280522Y-52406393D02*
X152160522Y-54526393D01*
X158400522Y-58319997D02*
X158400522Y-53266393D01*
X179465522Y-65591393D02*
X160165522Y-65591393D01*
X152030522Y-57556393D02*
X152960522Y-58486393D01*
X157540522Y-52406393D02*
X154280522Y-52406393D01*
X96315522Y-57721393D02*
X94900522Y-59136393D01*
X147620522Y-57636393D02*
X147700522Y-57556393D01*
X158400522Y-53266393D02*
X157540522Y-52406393D01*
X159108720Y-59028195D02*
X158400522Y-58319997D01*
X146660522Y-59386393D02*
X145235522Y-57961393D01*
X145235522Y-57961393D02*
X131145522Y-57961393D01*
X152960522Y-58486393D02*
X152960522Y-58656393D01*
X110575522Y-57721393D02*
X96315522Y-57721393D01*
X147620522Y-58426393D02*
X147620522Y-57636393D01*
X131145522Y-57961393D02*
X129730522Y-59376393D01*
X128525522Y-58171393D02*
X113275522Y-58171393D01*
X147700522Y-57556393D02*
X152030522Y-57556393D01*
X113275522Y-58171393D02*
X112150522Y-59296393D01*
X152160522Y-54526393D02*
X152160522Y-55166393D01*
X160130522Y-63173601D02*
X159108720Y-62151799D01*
X152160522Y-55166393D02*
X152990522Y-55996393D01*
X160130522Y-65556393D02*
X160130522Y-63173601D01*
X112150522Y-59296393D02*
X110575522Y-57721393D01*
X179580522Y-65476393D02*
X179465522Y-65591393D01*
X146660522Y-59386393D02*
X147620522Y-58426393D01*
%TO.N,Net-(E12-D0)*%
X112150522Y-61836393D02*
X110575522Y-60261393D01*
X113565522Y-60421393D02*
X112150522Y-61836393D01*
X158850522Y-53079997D02*
X157726918Y-51956393D01*
X146660522Y-61926393D02*
X147785522Y-60801393D01*
X146660522Y-61926393D02*
X145235522Y-60501393D01*
X110575522Y-60261393D02*
X96315522Y-60261393D01*
X147785522Y-59296393D02*
X148070522Y-59011393D01*
X158850522Y-53936393D02*
X158850522Y-53079997D01*
X151710522Y-54339997D02*
X151710522Y-56086393D01*
X154094126Y-51956393D02*
X151710522Y-54339997D01*
X145235522Y-60501393D02*
X131145522Y-60501393D01*
X147785522Y-60801393D02*
X147785522Y-59296393D01*
X131145522Y-60501393D02*
X129730522Y-61916393D01*
X160580522Y-62987205D02*
X159558720Y-61965403D01*
X148070522Y-59011393D02*
X148070522Y-58006393D01*
X96315522Y-60261393D02*
X94900522Y-61676393D01*
X159558720Y-58841799D02*
X158850522Y-58133601D01*
X177040522Y-65111393D02*
X177010522Y-65141393D01*
X151020522Y-58006393D02*
X151700522Y-58686393D01*
X157726918Y-51956393D02*
X154094126Y-51956393D01*
X148070522Y-58006393D02*
X151020522Y-58006393D01*
X159558720Y-61965403D02*
X159558720Y-58841799D01*
X129730522Y-61916393D02*
X128235522Y-60421393D01*
X160580522Y-65116393D02*
X160580522Y-62987205D01*
X177040522Y-54626393D02*
X177040522Y-65111393D01*
X158850522Y-58133601D02*
X158850522Y-53936393D01*
X128235522Y-60421393D02*
X113565522Y-60421393D01*
X177010522Y-65141393D02*
X160605522Y-65141393D01*
X160605522Y-65141393D02*
X160580522Y-65116393D01*
%TO.N,Net-(E12-D1)*%
X159300522Y-52893601D02*
X157913314Y-51506393D01*
X131145522Y-63041393D02*
X129730522Y-64456393D01*
X148235522Y-59482789D02*
X148235522Y-61942384D01*
X96025522Y-63091393D02*
X94900522Y-64216393D01*
X153907730Y-51506393D02*
X151260522Y-54153601D01*
X151260522Y-54153601D02*
X151260522Y-55106393D01*
X146660522Y-64466393D02*
X145235522Y-63041393D01*
X160008720Y-61779007D02*
X160008720Y-58655403D01*
X146660522Y-63517384D02*
X146660522Y-64466393D01*
X150280522Y-56086393D02*
X149830522Y-56086393D01*
X110865522Y-63091393D02*
X96025522Y-63091393D01*
X161030522Y-62800809D02*
X160008720Y-61779007D01*
X145235522Y-63041393D02*
X131145522Y-63041393D01*
X174500522Y-64626393D02*
X174435522Y-64691393D01*
X112150522Y-64376393D02*
X110865522Y-63091393D01*
X148520522Y-58456393D02*
X148520522Y-59197789D01*
X161035522Y-64691393D02*
X161030522Y-64686393D01*
X128525522Y-63251393D02*
X113275522Y-63251393D01*
X151260522Y-55106393D02*
X150280522Y-56086393D01*
X148520522Y-59197789D02*
X148235522Y-59482789D01*
X149810522Y-58730893D02*
X149810522Y-58696393D01*
X161030522Y-64686393D02*
X161030522Y-62800809D01*
X159300522Y-57947205D02*
X159300522Y-52893601D01*
X129730522Y-64456393D02*
X128525522Y-63251393D01*
X113275522Y-63251393D02*
X112150522Y-64376393D01*
X157913314Y-51506393D02*
X153907730Y-51506393D01*
X149570522Y-58456393D02*
X148520522Y-58456393D01*
X174500522Y-54626393D02*
X174500522Y-64626393D01*
X148235522Y-61942384D02*
X146660522Y-63517384D01*
X174435522Y-64691393D02*
X161035522Y-64691393D01*
X160008720Y-58655403D02*
X159300522Y-57947205D01*
X149810522Y-58696393D02*
X149570522Y-58456393D01*
%TO.N,Net-(E12-D2)*%
X129730522Y-66996393D02*
X128525522Y-65791393D01*
X171775522Y-64241393D02*
X168820522Y-64241393D01*
X158099710Y-51056393D02*
X153721334Y-51056393D01*
X171960522Y-54626393D02*
X171960522Y-62886393D01*
X161480522Y-64166393D02*
X161480522Y-62614413D01*
X160458720Y-58469007D02*
X159750522Y-57760809D01*
X159750522Y-53586393D02*
X159750522Y-52707205D01*
X148500522Y-65166393D02*
X148500522Y-63566393D01*
X153721334Y-51056393D02*
X150810522Y-53967205D01*
X96025522Y-65631393D02*
X94900522Y-66756393D01*
X161480522Y-62614413D02*
X160458720Y-61592611D01*
X146660522Y-67006393D02*
X145525522Y-65871393D01*
X113275522Y-65791393D02*
X112150522Y-66916393D01*
X171960522Y-62886393D02*
X171960522Y-64056393D01*
X145525522Y-65871393D02*
X130855522Y-65871393D01*
X150810522Y-53967205D02*
X150810522Y-54906393D01*
X150680522Y-55036393D02*
X149560522Y-55036393D01*
X148500522Y-63566393D02*
X148557821Y-63509094D01*
X128525522Y-65791393D02*
X113275522Y-65791393D01*
X159750522Y-57760809D02*
X159750522Y-53586393D01*
X130855522Y-65871393D02*
X129730522Y-66996393D01*
X159750522Y-52707205D02*
X158099710Y-51056393D01*
X161555522Y-64241393D02*
X161480522Y-64166393D01*
X150810522Y-54906393D02*
X150680522Y-55036393D01*
X168820522Y-64241393D02*
X162195522Y-64241393D01*
X162195522Y-64241393D02*
X161555522Y-64241393D01*
X112150522Y-66916393D02*
X110865522Y-65631393D01*
X159750522Y-54956393D02*
X159750522Y-52707205D01*
X110865522Y-65631393D02*
X96025522Y-65631393D01*
X146660522Y-67006393D02*
X148500522Y-65166393D01*
X160458720Y-61592611D02*
X160458720Y-58469007D01*
X171960522Y-64056393D02*
X171775522Y-64241393D01*
X149560522Y-55036393D02*
X148490522Y-56106393D01*
%TO.N,Net-(E12-D3)*%
X157530522Y-73376393D02*
X155830522Y-73376393D01*
X96025522Y-68171393D02*
X94900522Y-69296393D01*
X148615522Y-72131393D02*
X146660522Y-70176393D01*
X158520522Y-69602789D02*
X158520522Y-72386393D01*
X146660522Y-69546393D02*
X145525522Y-68411393D01*
X146660522Y-70176393D02*
X146660522Y-69546393D01*
X149881918Y-72131393D02*
X148615522Y-72131393D01*
X158931918Y-69191393D02*
X158520522Y-69602789D01*
X150560522Y-73236393D02*
X150560522Y-72809997D01*
X150560522Y-72809997D02*
X149881918Y-72131393D01*
X155830522Y-73376393D02*
X155175522Y-74031393D01*
X128525522Y-68331393D02*
X113275522Y-68331393D01*
X151355522Y-74031393D02*
X150560522Y-73236393D01*
X145525522Y-68411393D02*
X130855522Y-68411393D01*
X113275522Y-68331393D02*
X112150522Y-69456393D01*
X129730522Y-69536393D02*
X128525522Y-68331393D01*
X112150522Y-69456393D02*
X110865522Y-68171393D01*
X130855522Y-68411393D02*
X129730522Y-69536393D01*
X158520522Y-72386393D02*
X157530522Y-73376393D01*
X155175522Y-74031393D02*
X151355522Y-74031393D01*
X110865522Y-68171393D02*
X96025522Y-68171393D01*
X171285522Y-69191393D02*
X158931918Y-69191393D01*
X171960522Y-69866393D02*
X171285522Y-69191393D01*
%TO.N,Net-(E12-D4)*%
X157620522Y-75846393D02*
X156449531Y-75846393D01*
X96025522Y-70711393D02*
X94900522Y-71836393D01*
X155084531Y-74481393D02*
X151169126Y-74481393D01*
X149695522Y-72581393D02*
X147155522Y-72581393D01*
X145525522Y-70951393D02*
X130855522Y-70951393D01*
X130855522Y-70951393D02*
X129730522Y-72076393D01*
X159325522Y-69641393D02*
X158970522Y-69996393D01*
X147155522Y-72581393D02*
X146660522Y-72086393D01*
X110865522Y-70711393D02*
X96025522Y-70711393D01*
X113275522Y-70871393D02*
X112150522Y-71996393D01*
X150110522Y-72996393D02*
X149695522Y-72581393D01*
X178380522Y-71066393D02*
X170870522Y-71066393D01*
X158970522Y-72572789D02*
X158260522Y-73282789D01*
X155180522Y-74577384D02*
X155084531Y-74481393D01*
X179580522Y-69866393D02*
X178380522Y-71066393D01*
X158260522Y-75206393D02*
X157620522Y-75846393D01*
X112150522Y-71996393D02*
X110865522Y-70711393D01*
X158970522Y-69996393D02*
X158970522Y-72572789D01*
X151169126Y-74481393D02*
X150110522Y-73422789D01*
X150110522Y-73422789D02*
X150110522Y-72996393D01*
X169445522Y-69641393D02*
X159325522Y-69641393D01*
X129730522Y-72076393D02*
X128525522Y-70871393D01*
X158260522Y-73282789D02*
X158260522Y-75206393D01*
X156449531Y-75846393D02*
X155180522Y-74577384D01*
X146660522Y-72086393D02*
X145525522Y-70951393D01*
X128525522Y-70871393D02*
X113275522Y-70871393D01*
X170870522Y-71066393D02*
X169445522Y-69641393D01*
%TO.N,Net-(E12-D5)*%
X148445522Y-74021393D02*
X148180522Y-73756393D01*
X112150522Y-74536393D02*
X111185522Y-75501393D01*
X155620522Y-75653780D02*
X154898135Y-74931393D01*
X159420522Y-70182789D02*
X159420522Y-72759185D01*
X155620522Y-77557384D02*
X155620522Y-75653780D01*
X145545522Y-75741393D02*
X130855522Y-75741393D01*
X156354531Y-78291393D02*
X155620522Y-77557384D01*
X148445522Y-74031393D02*
X148445522Y-74021393D01*
X159420522Y-72759185D02*
X158710522Y-73469185D01*
X146660522Y-74626393D02*
X145545522Y-75741393D01*
X113275522Y-75661393D02*
X112150522Y-74536393D01*
X180470522Y-71516393D02*
X170684126Y-71516393D01*
X158240522Y-77366393D02*
X157315522Y-78291393D01*
X157250522Y-78291393D02*
X156354531Y-78291393D01*
X182120522Y-69866393D02*
X180470522Y-71516393D01*
X169259126Y-70091393D02*
X159511918Y-70091393D01*
X129730522Y-74616393D02*
X128685522Y-75661393D01*
X170684126Y-71516393D02*
X169259126Y-70091393D01*
X159511918Y-70091393D02*
X159420522Y-70182789D01*
X158710522Y-75392789D02*
X158240522Y-75862789D01*
X130855522Y-75741393D02*
X129730522Y-74616393D01*
X111185522Y-75501393D02*
X96025522Y-75501393D01*
X157315522Y-78291393D02*
X157250522Y-78291393D01*
X128685522Y-75661393D02*
X113275522Y-75661393D01*
X158240522Y-75862789D02*
X158240522Y-77366393D01*
X96025522Y-75501393D02*
X94900522Y-74376393D01*
X150082730Y-74031393D02*
X148445522Y-74031393D01*
X147530522Y-73756393D02*
X146660522Y-74626393D01*
X148180522Y-73756393D02*
X147530522Y-73756393D01*
X154898135Y-74931393D02*
X150982730Y-74931393D01*
X158710522Y-73469185D02*
X158710522Y-75392789D01*
X150982730Y-74931393D02*
X150082730Y-74031393D01*
%TO.N,Net-(E12-D6)*%
X158200522Y-80396393D02*
X158200522Y-78042789D01*
X159870522Y-72945581D02*
X159870522Y-70546393D01*
X182560522Y-71966393D02*
X184660522Y-69866393D01*
X112150522Y-77076393D02*
X111185522Y-78041393D01*
X146660522Y-77166393D02*
X145545522Y-78281393D01*
X158200522Y-78042789D02*
X158690522Y-77552789D01*
X158690522Y-76049185D02*
X159160522Y-75579185D01*
X96025522Y-78041393D02*
X94900522Y-76916393D01*
X153560522Y-81016393D02*
X157580522Y-81016393D01*
X159160522Y-75579185D02*
X159160522Y-73655581D01*
X113275522Y-78201393D02*
X112150522Y-77076393D01*
X130855522Y-78281393D02*
X129730522Y-77156393D01*
X169072730Y-70541393D02*
X170497730Y-71966393D01*
X158690522Y-77552789D02*
X158690522Y-76049185D01*
X159875522Y-70541393D02*
X169072730Y-70541393D01*
X128685522Y-78201393D02*
X113275522Y-78201393D01*
X170497730Y-71966393D02*
X182560522Y-71966393D01*
X159870522Y-70546393D02*
X159875522Y-70541393D01*
X157580522Y-81016393D02*
X158200522Y-80396393D01*
X129730522Y-77156393D02*
X128685522Y-78201393D01*
X159160522Y-73655581D02*
X159870522Y-72945581D01*
X145545522Y-78281393D02*
X130855522Y-78281393D01*
X111185522Y-78041393D02*
X96025522Y-78041393D01*
%TO.N,Net-(E12-D7)*%
X158650522Y-82416393D02*
X158650522Y-78229185D01*
X135955522Y-81111393D02*
X131145522Y-81111393D01*
X106210522Y-80676393D02*
X103280522Y-80676393D01*
X160320522Y-71026393D02*
X160355522Y-70991393D01*
X124628022Y-79808893D02*
X123520522Y-80916393D01*
X96120522Y-80676393D02*
X94900522Y-79456393D01*
X160320522Y-73131977D02*
X160320522Y-71026393D01*
X141740522Y-79706393D02*
X140470522Y-80976393D01*
X158650522Y-78229185D02*
X159140522Y-77739185D01*
X152100522Y-82216393D02*
X153850522Y-83966393D01*
X159610522Y-73841977D02*
X160320522Y-73131977D01*
X159140522Y-77739185D02*
X159140522Y-76235581D01*
X129603022Y-79808893D02*
X124628022Y-79808893D01*
X146660522Y-79706393D02*
X141740522Y-79706393D01*
X184650522Y-72416393D02*
X187200522Y-69866393D01*
X170311334Y-72416393D02*
X184650522Y-72416393D01*
X131145522Y-81111393D02*
X129730522Y-79696393D01*
X101416022Y-80676393D02*
X96120522Y-80676393D01*
X123520522Y-80916393D02*
X113450522Y-80916393D01*
X112150522Y-79616393D02*
X107270522Y-79616393D01*
X138600522Y-80976393D02*
X138465522Y-81111393D01*
X160355522Y-70991393D02*
X168886334Y-70991393D01*
X153850522Y-83966393D02*
X157100522Y-83966393D01*
X168886334Y-70991393D02*
X170311334Y-72416393D01*
X107270522Y-79616393D02*
X106210522Y-80676393D01*
X159610522Y-75765581D02*
X159610522Y-73841977D01*
X140470522Y-80976393D02*
X138600522Y-80976393D01*
X113450522Y-80916393D02*
X112150522Y-79616393D01*
X157100522Y-83966393D02*
X158650522Y-82416393D01*
X159140522Y-76235581D02*
X159610522Y-75765581D01*
%TO.N,Net-(E6-~{CS})*%
X153477730Y-84866393D02*
X152432730Y-83821393D01*
X111684531Y-80741393D02*
X111009531Y-80066393D01*
X102900522Y-83336393D02*
X102140522Y-82576393D01*
X160040522Y-76608373D02*
X160040522Y-78111977D01*
X160510522Y-76138373D02*
X162282502Y-76138373D01*
X105040522Y-79436393D02*
X105060522Y-79456393D01*
X102570522Y-79436393D02*
X105040522Y-79436393D01*
X112639126Y-80741393D02*
X111684531Y-80741393D01*
X159550522Y-82789185D02*
X157473314Y-84866393D01*
X119360827Y-81961393D02*
X113859126Y-81961393D01*
X113859126Y-81961393D02*
X112639126Y-80741393D01*
X106185522Y-82462384D02*
X105311513Y-83336393D01*
X162282502Y-76138373D02*
X162380522Y-76236393D01*
X102140522Y-79866393D02*
X102570522Y-79436393D01*
X160040522Y-78111977D02*
X159550522Y-78601977D01*
X105311513Y-83336393D02*
X102900522Y-83336393D01*
X111009531Y-80066393D02*
X107456918Y-80066393D01*
X157473314Y-84866393D02*
X153477730Y-84866393D01*
X121220827Y-83821393D02*
X119360827Y-81961393D01*
X106185522Y-81337789D02*
X106185522Y-82462384D01*
X152432730Y-83821393D02*
X121220827Y-83821393D01*
X159550522Y-78601977D02*
X159550522Y-82789185D01*
X107456918Y-80066393D02*
X106185522Y-81337789D01*
X102140522Y-82576393D02*
X102140522Y-79866393D01*
X160510522Y-76138373D02*
X160040522Y-76608373D01*
%TO.N,Net-(E12-A7)*%
X149050522Y-73306393D02*
X141120522Y-73306393D01*
X156260522Y-72086393D02*
X155040522Y-73306393D01*
X138215522Y-73201393D02*
X123515522Y-73201393D01*
X158745522Y-68741393D02*
X158070522Y-69416393D01*
X156410522Y-72086393D02*
X156260522Y-72086393D01*
X156820522Y-72086393D02*
X156410522Y-72086393D01*
X183245522Y-68741393D02*
X158745522Y-68741393D01*
X141120522Y-73306393D02*
X139890522Y-72076393D01*
X158070522Y-69416393D02*
X158070522Y-70836393D01*
X122310522Y-71996393D02*
X121185522Y-73121393D01*
X121185522Y-73121393D02*
X106345522Y-73121393D01*
X197360522Y-54626393D02*
X183245522Y-68741393D01*
X123515522Y-73201393D02*
X122310522Y-71996393D01*
X106345522Y-73121393D02*
X105060522Y-71836393D01*
X155040522Y-73306393D02*
X152010522Y-73306393D01*
X139340522Y-72076393D02*
X138215522Y-73201393D01*
X158070522Y-70836393D02*
X156820522Y-72086393D01*
X139890522Y-72076393D02*
X139340522Y-72076393D01*
%TO.N,Net-(E12-A6)*%
X183059126Y-68291393D02*
X194820522Y-56529997D01*
X194820522Y-56529997D02*
X194820522Y-54626393D01*
X166590522Y-68291393D02*
X158075522Y-68291393D01*
X158075522Y-68291393D02*
X156820522Y-69546393D01*
X166590522Y-68291393D02*
X183059126Y-68291393D01*
%TO.N,Net-(E12-A5)*%
X192280522Y-54626393D02*
X192280522Y-58433601D01*
X157655522Y-67841393D02*
X156820522Y-67006393D01*
X192280522Y-58433601D02*
X182872730Y-67841393D01*
X182872730Y-67841393D02*
X157655522Y-67841393D01*
%TO.N,Net-(E12-A4)*%
X189740522Y-60337205D02*
X182686334Y-67391393D01*
X182686334Y-67391393D02*
X158796513Y-67391393D01*
X189740522Y-54626393D02*
X189740522Y-60337205D01*
X158330522Y-66925402D02*
X158330522Y-65976393D01*
X158796513Y-67391393D02*
X158330522Y-66925402D01*
X158330522Y-65976393D02*
X156820522Y-64466393D01*
%TO.N,Net-(E12-A3)*%
X166748314Y-66941393D02*
X159125522Y-66941393D01*
X182499938Y-66941393D02*
X166748314Y-66941393D01*
X187200522Y-54626393D02*
X187200522Y-62240809D01*
X158780522Y-66596393D02*
X158780522Y-63886393D01*
X158780522Y-63886393D02*
X156820522Y-61926393D01*
X159125522Y-66941393D02*
X158780522Y-66596393D01*
X187200522Y-62240809D02*
X182499938Y-66941393D01*
%TO.N,Net-(D1-A)*%
X116140522Y-53556393D02*
X116140522Y-53866393D01*
X116140522Y-53036393D02*
X116140522Y-53556393D01*
X167450000Y-62600000D02*
X169260000Y-62600000D01*
X117030522Y-54236393D02*
X117160522Y-54106393D01*
X193960000Y-78530000D02*
X191070000Y-75640000D01*
X98565522Y-52481393D02*
X98400522Y-52646393D01*
X197130000Y-71617195D02*
X197130000Y-79910000D01*
X97900522Y-53456393D02*
X97900522Y-53146393D01*
X153534938Y-50606393D02*
X158286106Y-50606393D01*
X193960000Y-80340000D02*
X193960000Y-78530000D01*
X158286106Y-50606393D02*
X160200522Y-52520809D01*
X98400522Y-52646393D02*
X98560522Y-52486393D01*
X134665522Y-52721393D02*
X134170522Y-53216393D01*
X148520522Y-53916393D02*
X147785522Y-53181393D01*
X166258607Y-63791393D02*
X167450000Y-62600000D01*
X160908720Y-58282611D02*
X160908720Y-61406393D01*
X134170522Y-53216393D02*
X134170522Y-53846393D01*
X147785522Y-53181393D02*
X146171918Y-53181393D01*
X116510522Y-54236393D02*
X116870522Y-54236393D01*
X160908720Y-61406215D02*
X161324710Y-61822205D01*
X148520522Y-53916393D02*
X150224938Y-53916393D01*
X161960522Y-63791393D02*
X166258607Y-63791393D01*
X116870522Y-54236393D02*
X117030522Y-54236393D01*
X98500522Y-54056393D02*
X97900522Y-53456393D01*
X160200522Y-52520809D02*
X160200522Y-57574413D01*
X98000522Y-53046393D02*
X98400522Y-52646393D01*
X116535522Y-52641393D02*
X116140522Y-53036393D01*
X116520522Y-52481393D02*
X98565522Y-52481393D01*
X198670000Y-70077195D02*
X197130000Y-71617195D01*
X134700522Y-52641393D02*
X116880522Y-52641393D01*
X197130000Y-79910000D02*
X196440000Y-80600000D01*
X161324710Y-61822205D02*
X161960522Y-62458017D01*
X160908720Y-61406393D02*
X160908898Y-61406393D01*
X134780522Y-52721393D02*
X134700522Y-52641393D01*
X116140522Y-53866393D02*
X116510522Y-54236393D01*
X146171918Y-53181393D02*
X145711918Y-52721393D01*
X116680522Y-52641393D02*
X116535522Y-52641393D01*
X196440000Y-80600000D02*
X194220000Y-80600000D01*
X116680522Y-52641393D02*
X116520522Y-52481393D01*
X116880522Y-52641393D02*
X116680522Y-52641393D01*
X134410522Y-54086393D02*
X134960522Y-54086393D01*
X98565522Y-52481393D02*
X98000522Y-53046393D01*
X99320522Y-54056393D02*
X98500522Y-54056393D01*
X160908898Y-61406393D02*
X161324710Y-61822205D01*
X145711918Y-52721393D02*
X134780522Y-52721393D01*
X97900522Y-53146393D02*
X98000522Y-53046393D01*
X134780522Y-52721393D02*
X134665522Y-52721393D01*
X198670000Y-67780000D02*
X198670000Y-70077195D01*
X150224938Y-53916393D02*
X153534938Y-50606393D01*
X134170522Y-53846393D02*
X134410522Y-54086393D01*
X161960522Y-62458017D02*
X161960522Y-63791393D01*
X194220000Y-80600000D02*
X193960000Y-80340000D01*
X191070000Y-75640000D02*
X183550000Y-75640000D01*
X160200522Y-57574413D02*
X160908720Y-58282611D01*
%TO.N,Net-(E12-~{CS})*%
X160590000Y-78128185D02*
X160590000Y-77715022D01*
X153291334Y-85316393D02*
X157589000Y-85316393D01*
X119860522Y-79616393D02*
X122310522Y-79616393D01*
X160590000Y-77715022D02*
X160715022Y-77590000D01*
X159950522Y-79280000D02*
X159950522Y-78767663D01*
X161083607Y-73696393D02*
X162380522Y-73696393D01*
X119430522Y-80046393D02*
X119860522Y-79616393D01*
X159950522Y-78767663D02*
X160590000Y-78128185D01*
X152246334Y-84271393D02*
X120725522Y-84271393D01*
X160735022Y-74044978D02*
X161083607Y-73696393D01*
X160735022Y-74945022D02*
X160735022Y-74044978D01*
X153291334Y-85316393D02*
X152246334Y-84271393D01*
X157589000Y-85316393D02*
X159950522Y-82954871D01*
X120725522Y-84271393D02*
X119430522Y-82976393D01*
X119430522Y-82976393D02*
X119350522Y-82976393D01*
X159950522Y-82954871D02*
X159950522Y-79280000D01*
%TO.N,Net-(E20-~{CS})*%
X159100522Y-78415581D02*
X159100522Y-82602789D01*
X163650522Y-73696393D02*
X162825522Y-72871393D01*
X160060522Y-74028373D02*
X160060522Y-75951977D01*
X157286918Y-84416393D02*
X153664126Y-84416393D01*
X137835522Y-83371393D02*
X137020522Y-82556393D01*
X137020522Y-80056393D02*
X137380522Y-79696393D01*
X159590522Y-76421977D02*
X159590522Y-77925581D01*
X161217502Y-72871393D02*
X160060522Y-74028373D01*
X159100522Y-82602789D02*
X157286918Y-84416393D01*
X153664126Y-84416393D02*
X152619126Y-83371393D01*
X137380522Y-79696393D02*
X139890522Y-79696393D01*
X159590522Y-77925581D02*
X159100522Y-78415581D01*
X152619126Y-83371393D02*
X137835522Y-83371393D01*
X137020522Y-82556393D02*
X137020522Y-80056393D01*
X162825522Y-72871393D02*
X161217502Y-72871393D01*
X160060522Y-75951977D02*
X159590522Y-76421977D01*
%TO.N,Net-(J2-Pin_1)*%
X210210522Y-56952789D02*
X210210522Y-59746393D01*
X206540522Y-56186393D02*
X204980522Y-54626393D01*
X210210522Y-77366393D02*
X210210522Y-59856393D01*
X209660522Y-79596393D02*
X209660522Y-77916393D01*
X209660522Y-77916393D02*
X210210522Y-77366393D01*
X206540522Y-56186393D02*
X209444126Y-56186393D01*
X209444126Y-56186393D02*
X210210522Y-56952789D01*
%TO.N,Net-(J2-Pin_2)*%
X210660522Y-56766393D02*
X210660522Y-79596393D01*
X207520522Y-54626393D02*
X208520522Y-54626393D01*
X208520522Y-54626393D02*
X210660522Y-56766393D01*
%TO.N,Net-(J3-Pin_1)*%
X208860522Y-68466393D02*
X206940522Y-66546393D01*
X205100522Y-79566393D02*
X205100522Y-77906393D01*
X192280522Y-68516393D02*
X192280522Y-69866393D01*
X205610522Y-77396393D02*
X205610522Y-73466393D01*
X205100522Y-77906393D02*
X205610522Y-77396393D01*
X205610522Y-73466393D02*
X205990522Y-73086393D01*
X194250522Y-66546393D02*
X192280522Y-68516393D01*
X207073314Y-73086393D02*
X208860522Y-71299185D01*
X205060522Y-79606393D02*
X205100522Y-79566393D01*
X208860522Y-71299185D02*
X208860522Y-68466393D01*
X205990522Y-73086393D02*
X207073314Y-73086393D01*
X206940522Y-66546393D02*
X194250522Y-66546393D01*
%TO.N,Net-(J3-Pin_2)*%
X189740522Y-68466393D02*
X189740522Y-69866393D01*
X207113720Y-73499591D02*
X207296512Y-73499591D01*
X207296512Y-73499591D02*
X209310522Y-71485581D01*
X207126918Y-66096393D02*
X192110522Y-66096393D01*
X206060522Y-79606393D02*
X206060522Y-74735581D01*
X206923720Y-73499591D02*
X206213720Y-73499591D01*
X206060522Y-73652789D02*
X206060522Y-75116393D01*
X207113720Y-73499591D02*
X206923720Y-73499591D01*
X206213720Y-73499591D02*
X206060522Y-73652789D01*
X192110522Y-66096393D02*
X189740522Y-68466393D01*
X209310522Y-68279997D02*
X207126918Y-66096393D01*
X209310522Y-71485581D02*
X209310522Y-68279997D01*
%TO.N,Net-(J1-Pin_1)*%
X165580000Y-81840000D02*
X165580000Y-80482931D01*
X199522601Y-80640000D02*
X199956915Y-80640000D01*
X181550000Y-74635686D02*
X181550000Y-79885686D01*
X201040409Y-72599591D02*
X200400000Y-73240000D01*
X165580000Y-80482931D02*
X165590000Y-80472931D01*
X200400000Y-73240000D02*
X200400000Y-77430000D01*
X181550000Y-79885686D02*
X183064315Y-81400000D01*
X165120000Y-82300000D02*
X165580000Y-81840000D01*
X200400000Y-77430000D02*
X200990522Y-78020522D01*
X207520522Y-69866393D02*
X207520522Y-72002789D01*
X207520522Y-72002789D02*
X206923720Y-72599591D01*
X199956915Y-80640000D02*
X200990522Y-79606393D01*
X206923720Y-72599591D02*
X201040409Y-72599591D01*
X162380522Y-81316393D02*
X163364129Y-82300000D01*
X169607170Y-74116393D02*
X181030707Y-74116393D01*
X165590000Y-80472931D02*
X165590000Y-72700000D01*
X183064315Y-81400000D02*
X198762601Y-81400000D01*
X165598607Y-72691393D02*
X168182170Y-72691393D01*
X181030707Y-74116393D02*
X181550000Y-74635686D01*
X163364129Y-82300000D02*
X165120000Y-82300000D01*
X165590000Y-72700000D02*
X165598607Y-72691393D01*
X200990522Y-78020522D02*
X200990522Y-79606393D01*
X168182170Y-72691393D02*
X169607170Y-74116393D01*
X198762601Y-81400000D02*
X199522601Y-80640000D01*
%TO.N,Net-(J1-Pin_2)*%
X204980522Y-71786393D02*
X204617324Y-72149591D01*
X181950000Y-79720000D02*
X183230000Y-81000000D01*
X163650522Y-77506393D02*
X163869293Y-77506393D01*
X181196393Y-73716393D02*
X181950000Y-74470000D01*
X181950000Y-74470000D02*
X181950000Y-79720000D01*
X200000000Y-72940000D02*
X200000000Y-79596915D01*
X165190000Y-72440000D02*
X165338607Y-72291393D01*
X169772856Y-73716393D02*
X181196393Y-73716393D01*
X200780000Y-72160000D02*
X200000000Y-72940000D01*
X200000000Y-79596915D02*
X199990522Y-79606393D01*
X165190000Y-76185686D02*
X165190000Y-72440000D01*
X183230000Y-81000000D02*
X198596915Y-81000000D01*
X198596915Y-81000000D02*
X199990522Y-79606393D01*
X204617324Y-72149591D02*
X200790409Y-72149591D01*
X200790409Y-72149591D02*
X200780000Y-72160000D01*
X204980522Y-69866393D02*
X204980522Y-71786393D01*
X168347856Y-72291393D02*
X169772856Y-73716393D01*
X165338607Y-72291393D02*
X168347856Y-72291393D01*
X163869293Y-77506393D02*
X165190000Y-76185686D01*
%TD*%
M02*
